<svg width="100" height="789" viewBox="0 0 100 789" fill="none" xmlns="http://www.w3.org/2000/svg">
<path d="M55.748 73.4023C80.2463 76.2491 99.2623 97.0694 99.2627 122.331L99.2588 122.968C98.9426 147.942 80.0406 168.438 55.748 171.261V789H44.2529V171.261C19.7545 168.414 0.739258 147.593 0.739258 122.331C0.739675 97.0694 19.7547 76.2491 44.2529 73.4023V0H55.748V73.4023ZM50.001 85.0703C29.4221 85.0703 12.7397 101.753 12.7393 122.331C12.7393 142.91 29.4218 159.593 50.001 159.593C70.58 159.593 87.2627 142.91 87.2627 122.331C87.2622 101.753 70.5797 85.0706 50.001 85.0703ZM30.4746 109.357C31.9589 107.721 34.4888 107.598 36.125 109.082C37.7611 110.566 37.8837 113.096 36.3994 114.732L29.6992 122.118L36.3994 129.505C37.8835 131.141 37.7611 133.671 36.125 135.155C34.4888 136.639 31.9588 136.516 30.4746 134.88L21.3359 124.807C19.953 123.282 19.9534 120.956 21.3359 119.432L30.4746 109.357ZM73.4189 134.852C71.9506 136.502 69.4219 136.649 67.7715 135.181C66.1215 133.712 65.9743 131.185 67.4424 129.534L73.4189 134.852ZM67.7715 109.057C69.3703 107.634 71.7934 107.728 73.2783 109.235L73.4189 109.386L82.3818 119.46C83.7302 120.976 83.7303 123.262 82.3818 124.777L73.4189 134.852L70.4307 132.192L67.4424 129.534L74.0391 122.118L67.4424 114.704L67.3096 114.547C65.9846 112.897 66.1728 110.479 67.7715 109.057Z" fill="white"/>
</svg>
